<?xml version="1.0" encoding="UTF-8"?>
<svg id="Layer_1" data-name="Layer 1" xmlns="http://www.w3.org/2000/svg" viewBox="0 0 1000 584.67">
  <defs>
    <style>
      .cls-1 {
        fill: #fff7f6;
      }

      .cls-2 {
        fill: #ec643b;
      }
    </style>
  </defs>
  <g>
    <g>
      <path class="cls-1" d="m280.22,300.56c-.29-.72-.76-1.29-1.4-1.72-.66-.43-1.4-.62-2.26-.53-.86.08-1.52.47-1.95,1.19-1.05,1.74-2.11,3.53-3.24,5.42-1.66,2.77-3.41,5.71-5.25,8.78-3.1,5.17-6.47,10.12-10.14,14.86-3.65,4.74-7.59,8.99-11.84,12.7-4.23,3.74-8.78,6.32-13.67,7.76h-2.59c-1.58-.14-2.55-1.01-2.91-2.59-.35-1.58-.35-3.61,0-6.14.37-2.5,1.09-5.32,2.16-8.39,1.09-3.08,2.24-6.22,3.45-9.36,1.23-3.16,2.44-6.26,3.67-9.28,1.21-3.02,2.26-5.6,3.12-7.76.72-2.28.43-4.66-.86-7.1-1.29-2.44-3.02-4.6-5.17-6.47-2.16-1.87-4.45-3.3-6.9-4.31-2.44-.99-4.37-1.13-5.81-.43-.29,2.87-.96,6.26-2.05,10.14-1.07,3.88-2.4,7.9-3.98,12.05-1.87,3.02-4.31,6.55-7.33,10.57-3.02,4.02-6.22,7.86-9.58,11.51-3.37,3.65-6.71,6.86-10.02,9.58-3.3,2.73-6.1,4.37-8.39,4.95-4.88,1.15-8.48.94-10.78-.64-2.3-1.58-3.8-3.84-4.52-6.79-.72-2.93-.86-6.14-.43-9.58.43-3.45,1.01-6.38,1.72-8.83,1.01-3.59,2.4-7.49,4.19-11.74,1.81-4.23,3.92-8.48,6.36-12.7,2.44-4.23,5.17-8.33,8.19-12.27,3.02-3.96,6.24-7.43,9.69-10.45,3.45-3.02,7.08-5.38,10.88-7.1,3.8-1.72,7.72-2.52,11.74-2.38,3.3.14,5.81,1.01,7.53,2.59,1.72,1.58,2.98,3.41,3.78,5.5.78,2.07,1.29,4.23,1.5,6.47.23,2.22.47,4.04.76,5.48,0,1.15.29,2.01.86,2.59s1.25.82,2.05.76c.78-.08,1.54-.39,2.26-.96.72-.57,1.07-1.38,1.07-2.38.14-3.02.08-6.05-.21-9.15-.29-3.08-.94-5.95-1.95-8.62-1.01-2.65-2.4-4.95-4.19-6.88-1.81-1.95-4.13-3.35-7-4.21-6.61-1.72-13.07-1.83-19.4-.33-6.32,1.52-12.38,4.1-18.18,7.76-5.83,3.65-11.29,8.19-16.38,13.57-5.09,5.38-9.58,11.06-13.46,17.01-3.88,5.95-7.04,11.97-9.48,17.98-2.44,6.03-4.02,11.58-4.72,16.58-.43,2.59-.55,5.83-.33,9.71.21,3.86,1.11,7.59,2.69,11.19,1.58,3.59,4.06,6.71,7.43,9.38,3.37,2.65,8.15,4.13,14.33,4.41,3.45.29,6.96-.39,10.55-2.05,3.59-1.64,7.1-3.84,10.55-6.57,3.45-2.73,6.79-5.81,10.02-9.26,3.24-3.45,6.28-6.96,9.15-10.55-1.01,3.59-1.48,7.1-1.4,10.55.06,3.45.76,6.53,2.05,9.26,1.29,2.73,3.18,4.95,5.71,6.67,2.5,1.72,5.77,2.73,9.79,3.02,2.59.14,4.99-.1,7.22-.74,2.22-.66,4.31-1.48,6.24-2.48,1.95-1.01,3.67-2.07,5.17-3.22,1.5-1.15,2.77-2.16,3.78-3.02,4-3.3,7.72-6.98,11.08-11,3.37-4,6.57-8.17,9.58-12.48,3.02-4.31,5.89-8.76,8.62-13.36,2.73-4.6,5.52-9.11,8.39-13.57.39-.68.57-1.29.57-1.85,0-.27-.04-.49-.14-.74Z"/>
      <path class="cls-1" d="m363.9,300.56c-.23-.72-.66-1.29-1.29-1.72-.66-.43-1.38-.62-2.16-.53-.8.08-1.48.47-2.05,1.19-.45.82-.92,1.66-1.44,2.57-1.29,2.26-2.79,4.78-4.47,7.55-2.38,3.88-4.99,7.9-7.86,12.07-2.44,3.43-5.17,6.67-8.19,9.69-3.02,3.02-6.03,5.62-9.05,7.86-3.02,2.22-5.85,3.94-8.5,5.17-2.67,1.21-4.93,1.74-6.79,1.6-2.73-.14-4.56-.82-5.5-2.03-.92-1.23-1.25-2.83-.96-4.84.29-2.01,1.01-4.25,2.16-6.69,1.15-2.44,2.5-4.91,4.1-7.43,1.56-2.5,3.22-4.95,4.95-7.33,1.72-2.36,3.3-4.41,4.74-6.14,4.17-5.6,8.39-11.02,12.7-16.26,4.31-5.23,8.05-10.16,11.21-14.76,3.14-4.6,5.48-8.64,7-12.17,1.5-3.51,1.54-6.34.1-8.5l-1.29-1.29c-.72-.72-1.54-1.44-2.48-2.16-.92-.72-1.79-1.38-2.59-1.95-.78-.55-1.4-.86-1.83-.86-.72.86-2.34,1.99-4.84,3.35-2.5,1.38-5.42,2.77-8.72,4.21-3.3,1.44-6.71,2.83-10.22,4.19-3.53,1.38-6.73,2.52-9.58,3.45-2.87.94-5.11,1.56-6.69,1.83-1.58.31-2.07,0-1.5-.86l9.05-13.14c1.29-3.14,1.79-5.85,1.5-8.07-.29-2.24-1.01-4.1-2.16-5.6s-2.63-2.79-4.41-3.88c-1.81-1.07-3.55-1.97-5.27-2.69-.86,2.3-2.52,5.32-4.95,9.05-2.46,3.74-4.74,7.64-6.9,11.74-2.16,4.08-3.59,7.96-4.31,11.62-.72,3.67.21,6.57,2.79,8.72-2.87,4.31-5.56,8.58-8.07,12.83-2.52,4.23-5.21,8.64-8.09,13.24-.33.47-.55.92-.66,1.33-.14.49-.12.94.02,1.35.29.8.72,1.38,1.29,1.72.57.37,1.25.51,2.03.43.8-.06,1.42-.47,1.85-1.19,1.23-1.95,2.48-3.92,3.8-5.93,1.54-2.42,3.16-4.91,4.8-7.41,3.02-4.6,6.18-9.19,9.48-13.79.72.14,1.44.23,2.16.23h2.16c2.01,0,3.74-.08,5.17-.23,1.44-.14,2.79-.39,4.08-.76,1.29-.35,2.69-.7,4.21-1.07,1.5-.35,3.32-.68,5.48-.96.57-.14.57.35,0,1.5-.57,1.15-1.5,2.69-2.79,4.64-1.29,1.93-2.87,4.17-4.74,6.67-1.87,2.52-3.74,5.07-5.6,7.66-2.87,3.88-5.62,7.61-8.29,11.19-2.65,3.59-5.09,7.22-7.33,10.88-2.22,3.67-4.04,7.43-5.48,11.31-1.44,3.88-2.24,8.05-2.38,12.5-.14,4.88,1.09,9.19,3.67,12.93,2.59,3.74,6.61,5.73,12.05,6.01,5.32.29,10.49-.68,15.52-2.89,5.03-2.24,9.77-5.13,14.22-8.72,4.43-3.59,8.6-7.61,12.48-12.07,3.84-4.41,7.25-8.72,10.24-12.99.04-.04.06-.1.1-.14,2.44-3.59,4.74-7.33,6.9-11.21,2.16-3.88,4.45-7.68,6.9-11.41.55-1.01.74-1.87.53-2.59Z"/>
      <path class="cls-1" d="m425.39,199.33c-1.29-2.44-3.02-4.56-5.17-6.36-2.16-1.79-4.45-3.14-6.9-4.08-2.44-.92-4.37-1.05-5.81-.33-1.58,6.03-3.78,12.7-6.57,20.03-2.09,5.46-4.56,11.29-7.41,17.47,5.66-2.05,16.58-5.85,27.75-9.01l1.85-3.71c1.35-3.02,2.32-5.32,2.89-6.9.86-2.3.66-4.66-.64-7.1Zm-3.45,101.23c-.29-.72-.76-1.29-1.4-1.72-.66-.43-1.38-.62-2.16-.53-.8.08-1.4.47-1.83,1.19-2.38,3.76-4.88,7.82-7.53,12.23-.39.64-.8,1.29-1.19,1.97-3.1,5.17-6.44,10.12-10.02,14.86-3.59,4.74-7.51,8.99-11.74,12.7-4.25,3.74-8.8,6.32-13.69,7.76h-2.59c-2.73-.14-3.94-2.3-3.65-6.47.29-4.15,1.48-9.4,3.55-15.72,2.07-6.3,4.78-13.28,8.09-20.89,3.3-7.59,6.63-14.86,10.02-21.74,1.99-4.08,3.88-7.9,5.64-11.45l.02-.02c.47-.94.92-1.87,1.38-2.77l1.07-2.13,9.3-18.64c-6.1.78-15.31,1.7-23.73,1.68-2.75,5.48-5.58,10.92-8.44,16.32-3.88,7.31-7.47,14.67-10.78,22.06-1.89,4.25-3.67,8.52-5.32,12.81-1.25,3.18-2.4,6.38-3.51,9.61-1.6,4.68-2.94,9.42-3.98,14.24-.64,2.94-1.19,5.91-1.62,8.91-.72,3.74-.96,7.29-.76,10.65.23,3.39.86,6.36,1.95,8.95,1.07,2.59,2.65,4.62,4.74,6.14,2.07,1.5,4.62,2.32,7.64,2.46,2.59,0,4.99-.31,7.22-.96,2.22-.64,4.31-1.44,6.24-2.36,1.93-.94,3.69-1.97,5.27-3.12,1.58-1.15,2.87-2.16,3.88-3.02,4.02-3.3,7.72-6.98,11.08-11,3.3-3.9,6.38-7.94,9.24-12.13.08-.12.16-.23.25-.35,2.93-4.31,5.79-8.76,8.52-13.36,2.71-4.6,5.52-9.11,8.39-13.57.57-1.01.72-1.87.43-2.59Z"/>
      <path class="cls-1" d="m545.78,300.56c-.29-.72-.76-1.29-1.4-1.72-.66-.43-1.4-.62-2.26-.53-.86.08-1.52.47-1.95,1.19-.6.99-1.19,1.99-1.81,3.02-2.09,3.47-4.31,7.2-6.69,11.19-3.1,5.17-6.47,10.12-10.14,14.86-3.65,4.74-7.61,8.99-11.84,12.7-4.23,3.74-8.78,6.32-13.67,7.76h-2.59c-1.58-.14-2.55-1.01-2.91-2.59-.35-1.58-.35-3.61,0-6.14.37-2.5,1.09-5.32,2.16-8.39,1.09-3.08,2.24-6.22,3.45-9.36,1.21-3.16,2.44-6.26,3.65-9.28,1.23-3.02,2.28-5.6,3.14-7.76.72-2.28.43-4.66-.86-7.1-1.29-2.44-3.02-4.6-5.17-6.47-2.16-1.87-4.45-3.3-6.9-4.31-2.44-.99-4.39-1.13-5.81-.43-.29,2.87-.99,6.26-2.05,10.14-1.09,3.88-2.4,7.9-3.98,12.05-1.87,3.02-4.31,6.55-7.33,10.57-3.02,4.02-6.22,7.86-9.58,11.51-3.37,3.65-6.71,6.86-10.02,9.58-3.3,2.73-6.1,4.37-8.39,4.95-4.88,1.15-8.48.94-10.78-.64-2.3-1.58-3.8-3.84-4.52-6.79-.72-2.93-.86-6.14-.43-9.58.43-3.45,1.01-6.38,1.72-8.83,1.01-3.59,2.4-7.49,4.19-11.74,1.81-4.23,3.92-8.48,6.36-12.7,2.44-4.23,5.17-8.33,8.19-12.27,3.02-3.96,6.24-7.43,9.69-10.45,3.45-3.02,7.06-5.38,10.88-7.1,3.8-1.72,7.72-2.52,11.74-2.38,3.3.14,5.81,1.01,7.53,2.59,1.72,1.58,2.98,3.41,3.78,5.5.78,2.07,1.29,4.23,1.5,6.47.23,2.22.47,4.04.76,5.48,0,1.15.29,2.01.86,2.59.57.57,1.25.82,2.05.76.78-.08,1.54-.39,2.26-.96.72-.57,1.07-1.38,1.07-2.38.14-3.02.08-6.05-.21-9.15-.29-3.08-.94-5.95-1.95-8.62-1.01-2.65-2.4-4.95-4.19-6.88-1.81-1.95-4.15-3.35-7-4.21-6.61-1.72-13.07-1.83-19.4-.33-6.32,1.52-12.38,4.1-18.21,7.76-5.81,3.65-11.27,8.19-16.36,13.57-5.11,5.38-9.58,11.06-13.46,17.01-3.88,5.95-7.04,11.97-9.48,17.98-.14.35-.29.7-.41,1.05-2.22,5.62-3.65,10.82-4.33,15.54-.16.96-.29,2.01-.35,3.16-.12,1.93-.1,4.1.04,6.55.21,3.86,1.11,7.59,2.69,11.19,1.58,3.59,4.04,6.71,7.43,9.38,3.37,2.65,8.15,4.13,14.33,4.41,3.45.29,6.96-.39,10.55-2.05,3.59-1.64,7.1-3.84,10.55-6.57,3.45-2.73,6.79-5.81,10.02-9.26,3.22-3.45,6.28-6.96,9.15-10.55-1.01,3.59-1.48,7.1-1.4,10.55.06,3.45.76,6.53,2.05,9.26,1.29,2.73,3.18,4.95,5.71,6.67,2.5,1.72,5.77,2.73,9.79,3.02,2.59.14,4.99-.1,7.22-.74,2.22-.66,4.31-1.48,6.24-2.48s3.65-2.07,5.17-3.22c1.5-1.15,2.75-2.16,3.78-3.02,4-3.3,7.7-6.98,11.08-11,3.37-4,6.57-8.17,9.58-12.48.88-1.27,1.77-2.57,2.63-3.86,2.07-3.1,4.06-6.26,5.99-9.5,2.71-4.6,5.52-9.11,8.39-13.57.57-1.01.72-1.87.43-2.59Z"/>
      <path class="cls-1" d="m606.94,199.33c-1.29-2.44-3.02-4.56-5.17-6.36-2.16-1.79-4.45-3.14-6.9-4.08-2.44-.92-4.37-1.05-5.81-.33-1.01,3.74-2.3,7.84-3.88,12.27-1.58,4.45-3.41,9.13-5.48,14.02-2.09,4.86-4.29,9.87-6.57,14.96-2.3,5.09-4.68,10.16-7.12,15.19-3.74,7.47-7.49,14.86-11.31,22.19-3.8,7.31-7.39,14.67-10.75,22.06-2.01,4.39-3.88,8.83-5.58,13.26-1.21,3.04-2.32,6.1-3.37,9.15-1.64,4.78-3,9.63-4.04,14.55-.62,2.83-1.13,5.71-1.56,8.6-.72,3.74-.96,7.29-.74,10.65.21,3.39.86,6.36,1.93,8.95,1.07,2.59,2.65,4.62,4.74,6.14,2.07,1.5,4.62,2.32,7.64,2.46,2.59,0,4.99-.31,7.22-.96,2.22-.64,4.31-1.44,6.24-2.36,1.95-.94,3.69-1.97,5.27-3.12,1.58-1.15,2.87-2.16,3.88-3.02,4.02-3.3,7.72-6.98,11.1-11,2.26-2.69,4.43-5.46,6.51-8.31,1.03-1.38,1.99-2.75,2.96-4.17,2.96-4.31,5.79-8.76,8.52-13.36s5.52-9.11,8.39-13.57c.57-1.01.72-1.87.43-2.59-.29-.72-.76-1.29-1.4-1.72-.64-.43-1.38-.62-2.16-.53-.78.08-1.4.47-1.83,1.19-1.01,1.6-2.05,3.24-3.1,4.97-.02.02-.04.04-.04.06-1.81,2.89-3.65,5.95-5.58,9.17-3.1,5.17-6.42,10.12-10.02,14.86-3.59,4.74-7.51,8.99-11.74,12.7-4.23,3.74-8.81,6.32-13.67,7.76h-2.59c-2.73-.14-3.96-2.3-3.67-6.47.29-4.15,1.48-9.4,3.55-15.72,2.09-6.3,4.78-13.28,8.09-20.89,3.3-7.59,6.63-14.86,10.02-21.74,3.37-6.9,6.42-13.03,9.15-18.43,2.73-5.38,4.6-9.07,5.6-11.08,2.3-4.6,4.74-9.38,7.33-14.33,2.57-4.95,4.95-9.65,7.1-14.1,2.16-4.45,4.04-8.44,5.71-11.97,1.64-3.51,2.77-6.14,3.35-7.86.86-2.3.64-4.66-.66-7.1Z"/>
      <path class="cls-1" d="m659.08,302.81c-.14-.78-.51-1.35-1.09-1.72-.57-.35-1.29-.49-2.16-.43-.86.08-1.58.47-2.16,1.19-.96,1.38-1.95,2.77-2.96,4.21-2.18,3.06-4.43,6.26-6.83,9.58-3.53,4.88-7.27,9.54-11.21,14-3.94,4.45-8.15,8.44-12.6,11.95-4.45,3.53-9.26,5.99-14.43,7.43h-2.36c-2.59-.14-3.71-1.83-3.35-5.05.35-3.24,1.5-7.37,3.45-12.4,1.93-5.03,4.47-10.55,7.64-16.58,3.16-6.03,6.28-11.88,9.38-17.55,3.08-5.66,5.95-10.73,8.62-15.19,2.65-4.45,4.41-7.68,5.27-9.69,1.01-2.3.96-4.66-.1-7.1-1.09-2.44-2.59-4.6-4.54-6.47-1.93-1.87-4.08-3.26-6.47-4.21-2.36-.92-4.27-1.05-5.71-.33-2.01,5.32-4.66,11.53-7.96,18.64-3.3,7.1-6.67,14.37-10.12,21.76-1.52,3.24-2.98,6.44-4.39,9.61-.02.02-.04.04-.04.06-1.83,4.06-3.57,8.05-5.25,11.99-2.91,6.77-5.09,12.68-6.53,17.73-.06.18-.1.39-.16.57-1.15,3.74-1.79,7.25-1.93,10.55s.21,6.24,1.07,8.83c.86,2.59,2.24,4.68,4.1,6.24,1.85,1.58,4.31,2.44,7.31,2.59,2.44,0,4.86-.31,7.22-.96,2.36-.64,4.56-1.44,6.57-2.36,2.01-.94,3.8-1.97,5.38-3.12,1.58-1.15,2.96-2.16,4.1-3.02,8.74-6.75,16.3-14.12,22.62-22.08.57-.74,1.17-1.48,1.74-2.24,0-.02.02-.04.02-.04,5.71-7.33,11.29-15.23,16.75-23.69.86-.99,1.21-1.89,1.09-2.69Z"/>
      <path class="cls-1" d="m742.96,265.89c-.23-2.16-.68-4.29-1.4-6.36s-1.52-3.78-2.38-5.07c-.86-1.29-1.5-1.58-1.93-.86-.29,2.87-2.05,7.22-5.27,13.03-3.24,5.83-7.31,12.31-12.17,19.5-4.88,7.18-10.34,14.53-16.38,22.08-6.03,7.53-11.84,14.43-17.45,20.67-5.6,6.24-10.78,11.39-15.5,15.39-4.74,4.02-8.27,6.12-10.57,6.26-1.29,0-1.58-1.66-.86-4.97.72-3.3,2.05-7.49,4-12.6,1.93-5.09,4.19-10.75,6.77-17.01,2.59-6.24,5.17-12.23,7.76-17.98,2.59-5.75,4.91-10.9,7-15.5,2.07-4.6,3.49-7.9,4.21-9.91.72-2.3.43-4.66-.86-7.1s-3.02-4.6-5.17-6.47c-2.16-1.87-4.41-3.26-6.79-4.21-2.36-.92-4.27-1.05-5.71-.33-1.44,5.32-3.59,11.72-6.47,19.17-2.87,7.47-5.91,15.13-9.15,22.95-1.31,3.2-2.63,6.36-3.92,9.48-1.85,4.47-3.65,8.87-5.44,13.14-1.5,3.63-2.85,6.96-4.04,10,0,0-.02.02-.02.04-1.17,3.02-2.2,5.75-3.04,8.17-1.58,4.29-2.42,8.07-2.48,11.29-.08,3.24.35,6.01,1.29,8.31.92,2.3,2.3,4,4.08,5.15,1.81,1.15,3.84,1.72,6.14,1.72,5.17.14,10.69-1.46,16.58-4.84,5.89-3.37,11.84-7.82,17.88-13.34,6.03-5.54,12.03-11.72,18-18.53,5.95-6.81,11.62-13.71,17.01-20.67,5.38-6.98,10.26-13.61,14.63-19.93,4.37-6.32,8.09-11.64,11.1-15.95.55-.99.74-2.57.53-4.72Z"/>
      <path class="cls-1" d="m833.08,300.56c-.29-.72-.74-1.29-1.4-1.72-.64-.43-1.35-.62-2.16-.53-.78.08-1.48.47-2.03,1.19-1.58,2.87-3.3,5.89-5.17,9.03-1.87,3.16-3.96,6.4-6.26,9.71-2.85,4.1-5.75,7.82-8.68,11.14-1.74,2.03-3.53,3.9-5.32,5.64-4.74,4.6-9.36,8.29-13.89,11.1-4.52,2.79-8.83,4.66-12.91,5.58-4.1.94-7.72,1.05-10.88.33-2.59-.57-4.74-1.64-6.47-3.22-1.72-1.58-3.08-3.45-4.08-5.6-1.01-2.16-1.72-4.45-2.16-6.9s-.57-4.88-.43-7.33c12.62-3.45,24.18-9.01,34.67-16.69,10.49-7.68,18.96-17.34,25.43-28.96,2.57-4.02,4.13-7.8,4.62-11.31.51-3.53.18-6.61-.96-9.28-1.15-2.65-2.98-4.76-5.5-6.34-2.5-1.58-5.48-2.38-8.93-2.38-5.32-.12-10.63.72-15.95,2.59-5.32,1.87-10.32,4.31-15.06,7.33-4.74,3.02-9.05,6.28-12.93,9.81-3.88,3.51-6.96,6.77-9.26,9.79-7.18,9.48-12.4,18.27-15.62,26.39-3.22,8.11-4.7,16.26-4.41,24.44.43,8.89,3.37,15.93,8.83,21.1s13.07,7.76,22.84,7.76c1.7,0,3.94-.04,6.67-.1,2.73-.08,5.81-.51,9.26-1.29,3.45-.8,7.1-2.16,10.98-4.1,3.88-1.93,7.9-4.76,12.07-8.5,3-2.69,5.77-5.46,8.37-8.33,1.01-1.13,1.99-2.26,2.93-3.41,3.37-4.1,6.47-8.19,9.26-12.27,2.79-4.1,5.36-8,7.66-11.74,2.28-3.74,4.43-7.18,6.44-10.34.57-1.01.72-1.87.43-2.59Zm-80.76,20.69c1.15-4.6,3.16-9.87,6.03-15.84,2.87-5.95,6.38-11.74,10.55-17.34,4.17-5.58,8.91-10.55,14.22-14.86,5.32-4.29,10.98-7.02,17.01-8.17,4.02-.72,6.53.39,7.53,3.32,1.01,2.96.51,6.51-1.5,10.67-5.75,10.9-13.28,19.99-22.62,27.24-9.34,7.27-19.83,12.54-31.44,15.84,0-.29.06-.57.21-.86Z"/>
      <path class="cls-1" d="m888.99,250.91c-.8-1.5-2.13-3.04-4-4.62-1.87-1.58-3.94-3.02-6.24-4.31-2.3-1.29-4.23-2.3-5.81-3.02-3.3,2.87-6.12,5.52-8.42,7.96s-4.29,4.84-6.01,7.22c-1.72,2.36-3.39,4.7-4.97,7-1.58,2.3-3.22,4.66-4.95,7.1-5.6,7.33-10.73,14.61-15.39,21.86-4.68,7.25-9.3,14.55-13.9,21.86-3.74,2.59-6.86,6.28-9.38,11.1-1.09,2.07-1.93,4.19-2.55,6.3-.8,2.79-1.21,5.6-1.21,8.46,0,1.05.06,2.07.18,3.08.23,2.2.76,4.31,1.54,6.38,1.15,3.02,2.93,5.71,5.38,8.09,2.44,2.36,5.52,4.31,9.26,5.81,3.74,1.52,8.19,2.48,13.36,2.91,4.88.29,9.44-.37,13.67-1.95s7.9-3.88,10.98-6.88c3.1-3.02,5.42-6.69,7-11,1.58-4.29,2.3-9.03,2.16-14.2-.29-5.17-.64-10.39-1.07-15.62-.43-5.23-.62-10.45-.53-15.62.06-5.17.72-10.22,1.93-15.19,1.21-4.95,3.35-9.73,6.36-14.33,1.29-1.85,2.28-3.37,3.02-4.52.7-1.15,1.42-2.18,2.16-3.12.7-.92,1.54-1.91,2.46-2.91.94-1.01,2.26-2.3,3.98-3.88,1.44-1.15,1.77-2.46.99-3.98Zm-40.82,54.18c.14,5.15.53,10.18,1.19,15.06.64,4.88.96,9.54.96,14,0,2.87-.33,5.64-.96,8.29-.66,2.67-1.7,4.99-3.12,7-1.46,2.01-3.24,3.55-5.4,4.64-2.16,1.07-4.74,1.48-7.76,1.19-2.73-.14-5.48-.9-8.29-2.28-2.79-1.35-5.05-3.47-6.77-6.34-1.72-2.59-2.52-5.07-2.38-7.43.14-2.38.86-4.49,2.16-6.36,1.29-1.87,3.02-3.41,5.17-4.62,2.16-1.23,4.41-2.13,6.79-2.71,2.36-.55,4.76-.68,7.2-.31,2.44.35,4.54,1.25,6.26,2.69.43-.43.39-1.48-.12-3.12-.49-1.66-1.17-3.45-2.03-5.4-.86-1.93-1.77-3.76-2.71-5.48-.92-1.72-1.6-2.87-2.03-3.45-1.15-.43-2.24-.8-3.24-1.09-1.01-.29-2.01-.43-3.02-.43,3.59-5.73,7.47-11.9,11.64-18.51,4.17-6.61,8.39-12.5,12.7-17.67-2.87,5.6-4.66,11.1-5.38,16.48-.72,5.4-1.01,10.67-.86,15.84Z"/>
    </g>
    <path class="cls-1" d="m394.85,269.96c-.45.9-.9,1.83-1.38,2.77l-.02.02,1.4-2.79Z"/>
    <path class="cls-1" d="m465.51,227.29l3.98-5.62c-.39.35-3.78,3.41-7.47,6.71-8.56,2.61-17.53,5.19-26.54,7.55l5.32-7.35-21.78,11.37h.1c-22.29,5.05-43.53,7.98-58.29,5.91,0,0,68.2-23.42,95.5-26.15,0,0-50.86,2.22-134.6,37.99,0,0,76.39-42.53,151.28-51.06,5.75.99,12.4,2.2,13.75,2.65,1.33.45-2.24-1.54-5.79-3.43,14.53-1.19,28.92-.99,42.57,1.19,0,0-25.8,10.2-58.04,20.24Z"/>
    <g>
      <path class="cls-1" d="m185.71,381.68h5.17c1.72,0,3.19.6,4.39,1.81,1.26,1.26,1.89,3.16,1.89,5.68s-.66,4.28-1.98,5.6c-1.09,1.09-2.53,1.64-4.31,1.64h-5.17v-14.73Zm1.98,1.64v11.45h3.1c1.09,0,1.98-.35,2.67-1.03,1.09-1.09,1.64-2.61,1.64-4.57,0-2.07-.52-3.62-1.55-4.65-.8-.8-1.72-1.21-2.75-1.21h-3.1Z"/>
      <path class="cls-1" d="m218.71,381.68h3.87v1.89h-.95v10.94h.95v1.89h-3.87v-1.89h.95v-10.94h-.95v-1.89Z"/>
      <path class="cls-1" d="m243.1,381.6h2.07l4.56,11.97,4.56-11.97h2.07l-5.86,14.9h-1.55l-5.86-14.9Z"/>
      <path class="cls-1" d="m277.57,381.68h9.47v1.64h-7.49v4.57h6.98v1.64h-6.98v5.25h7.92v1.64h-9.9v-14.73Z"/>
      <path class="cls-1" d="m334.88,381.68h3.87v1.89h-.95v10.94h.95v1.89h-3.87v-1.89h.95v-10.94h-.95v-1.89Z"/>
      <path class="cls-1" d="m360.48,381.68h2.15l6.89,11.63v-11.63h1.98v14.73h-2.15l-6.89-11.63v11.63h-1.98v-14.73Z"/>
      <path class="cls-1" d="m393.05,381.68h11.8v1.64h-4.91v13.09h-1.98v-13.09h-4.91v-1.64Z"/>
      <path class="cls-1" d="m428.21,383.32c1.21-1.21,2.67-1.81,4.39-1.81s3.19.6,4.39,1.81c1.38,1.38,2.07,3.27,2.07,5.68s-.69,4.31-2.07,5.69c-1.21,1.21-2.67,1.81-4.39,1.81s-3.19-.6-4.39-1.81c-1.38-1.38-2.07-3.27-2.07-5.69s.69-4.3,2.07-5.68Zm1.46,1.12c-.98.98-1.46,2.5-1.46,4.56s.49,3.59,1.46,4.57c.86.86,1.84,1.29,2.93,1.29s2.07-.43,2.93-1.29c.98-.98,1.46-2.5,1.46-4.57s-.49-3.58-1.46-4.56c-.86-.86-1.84-1.29-2.93-1.29s-2.07.43-2.93,1.29Z"/>
      <path class="cls-1" d="m486.55,381.68h11.8v1.64h-4.91v13.09h-1.98v-13.09h-4.91v-1.64Z"/>
      <path class="cls-1" d="m519.9,381.68h1.98v6.2h7.06v-6.2h1.98v14.73h-1.98v-6.89h-7.06v6.89h-1.98v-14.73Z"/>
      <path class="cls-1" d="m553.33,381.68h9.47v1.64h-7.49v4.57h6.97v1.64h-6.97v5.25h7.92v1.64h-9.9v-14.73Z"/>
      <path class="cls-1" d="m611.58,381.68h9.9v1.64h-7.92v4.82h6.2v1.64h-6.2v6.63h-1.98v-14.73Z"/>
      <path class="cls-1" d="m641.66,396.41l5.86-14.9h1.72l5.86,14.9h-2.07l-1.81-4.48h-5.68l-1.81,4.48h-2.07Zm6.72-12.05l-2.24,5.94h4.48l-2.24-5.94Z"/>
      <path class="cls-1" d="m676.3,381.68h2.15l6.89,11.63v-11.63h1.98v14.73h-2.15l-6.89-11.63v11.63h-1.98v-14.73Z"/>
      <path class="cls-1" d="m708.88,381.68h11.8v1.64h-4.91v13.09h-1.98v-13.09h-4.91v-1.64Z"/>
      <path class="cls-1" d="m740.93,396.41l5.86-14.9h1.72l5.86,14.9h-2.07l-1.81-4.48h-5.68l-1.81,4.48h-2.07Zm6.72-12.05l-2.24,5.94h4.48l-2.24-5.94Z"/>
      <path class="cls-1" d="m776.86,382.72c.8-.8,2.04-1.21,3.7-1.21,1.78,0,3.13.46,4.05,1.37.8.8,1.21,1.75,1.21,2.84h-1.98c0-.69-.23-1.26-.69-1.72-.52-.52-1.32-.77-2.41-.77-1.21,0-2.04.23-2.5.69-.4.4-.6.86-.6,1.38s.12.89.35,1.12c.29.29.8.58,1.55.86,1.32.57,2.81,1.24,4.48,1.98.46.17.89.46,1.29.86.63.63.95,1.38.95,2.24,0,1.15-.4,2.12-1.21,2.93-.86.86-2.27,1.29-4.22,1.29s-3.36-.52-4.39-1.55c-.75-.75-1.12-1.84-1.12-3.27h1.98c0,1.04.23,1.78.69,2.24.63.63,1.61.95,2.93.95,1.21,0,2.09-.29,2.67-.86.46-.46.69-.92.69-1.38,0-.52-.17-.95-.52-1.29-.29-.29-.75-.57-1.37-.86-.58-.29-1.32-.63-2.24-1.03-1.03-.46-1.87-.83-2.5-1.12-.46-.17-.86-.43-1.21-.77-.52-.52-.77-1.21-.77-2.07,0-1.09.4-2.04,1.21-2.84Z"/>
      <path class="cls-1" d="m806.85,381.68h2.07l4.22,6.72,4.22-6.72h2.07l-5.25,8.18v6.54h-1.98v-6.54l-5.34-8.18Z"/>
    </g>
  </g>
  <path class="cls-2" d="m654.97,209.35c-1.44-2.22-3.2-4.41-5.27-6.57s-4.21-4.02-6.36-5.6c-2.13-1.58-3.86-2.3-5.15-2.16-.14,3.16-.62,6.51-1.42,10.02-.78,3.53-1.64,7-2.57,10.45-.94,3.45-1.77,6.75-2.48,9.91-.72,3.16-1.15,5.95-1.29,8.39,0,1.15.39,2.48,1.19,3.98.78,1.52,1.74,3.02,2.89,4.54,1.15,1.5,2.4,2.83,3.78,3.98,1.35,1.15,2.63,1.79,3.78,1.93.7-2.87,1.79-5.75,3.22-8.62,1.44-2.87,2.91-5.77,4.41-8.72,1.52-2.93,2.93-5.81,4.31-8.6,1.35-2.81,2.4-5.56,3.12-8.29,0-.86-.72-2.42-2.16-4.64Z"/>
</svg>