<?xml version="1.0" encoding="UTF-8"?>
<svg id="Layer_1" data-name="Layer 1" xmlns="http://www.w3.org/2000/svg" viewBox="0 0 1000 584.67">
  <defs>
    <style>
      .cls-1 {
        fill: #ec643b;
      }

      .cls-2 {
        font-family: MS-PGothic, 'MS PGothic';
        font-size: 21.33px;
      }

      .cls-2, .cls-3 {
        fill: #0000de;
      }
    </style>
  </defs>
  <g>
    <g>
      <path class="cls-3" d="m273.69,293.42c-.28-.7-.73-1.25-1.35-1.67-.64-.42-1.35-.6-2.18-.52-.83.08-1.47.46-1.89,1.15-1.01,1.69-2.05,3.42-3.14,5.24-1.61,2.68-3.3,5.52-5.09,8.5-3,5.01-6.26,9.79-9.81,14.38-3.54,4.59-7.35,8.7-11.46,12.3-4.09,3.62-8.5,6.12-13.23,7.51h-2.5c-1.53-.14-2.46-.97-2.82-2.5-.34-1.53-.34-3.5,0-5.94.36-2.42,1.05-5.14,2.09-8.12,1.05-2.98,2.17-6.02,3.34-9.06,1.19-3.06,2.36-6.06,3.56-8.98,1.17-2.92,2.18-5.42,3.02-7.51.7-2.2.42-4.51-.83-6.87s-2.92-4.45-5.01-6.26c-2.09-1.81-4.31-3.2-6.67-4.17-2.36-.95-4.23-1.09-5.62-.42-.28,2.78-.93,6.06-1.99,9.81-1.03,3.75-2.32,7.65-3.85,11.66-1.81,2.92-4.17,6.34-7.09,10.23-2.92,3.89-6.02,7.61-9.28,11.14-3.26,3.54-6.5,6.63-9.69,9.28-3.2,2.64-5.9,4.23-8.12,4.79-4.73,1.11-8.2.91-10.43-.62-2.22-1.53-3.67-3.71-4.37-6.57-.7-2.84-.83-5.94-.42-9.28.42-3.34.97-6.18,1.67-8.54.97-3.48,2.32-7.25,4.05-11.36,1.75-4.09,3.79-8.2,6.16-12.3,2.36-4.09,5.01-8.06,7.93-11.88,2.92-3.83,6.04-7.19,9.38-10.11,3.34-2.92,6.85-5.2,10.53-6.87,3.67-1.67,7.47-2.44,11.36-2.3,3.2.14,5.62.97,7.29,2.5,1.67,1.53,2.88,3.3,3.65,5.32.75,2.01,1.25,4.09,1.45,6.26.22,2.15.46,3.91.73,5.3,0,1.11.28,1.95.83,2.5s1.21.79,1.99.73c.75-.08,1.49-.38,2.18-.93.7-.56,1.03-1.33,1.03-2.3.14-2.92.08-5.86-.2-8.86-.28-2.98-.91-5.76-1.89-8.34-.97-2.56-2.32-4.79-4.05-6.65-1.75-1.89-3.99-3.24-6.77-4.07-6.4-1.67-12.65-1.77-18.77-.32-6.12,1.47-11.98,3.97-17.6,7.51-5.64,3.54-10.93,7.93-15.85,13.13-4.93,5.2-9.28,10.71-13.03,16.47-3.75,5.76-6.81,11.58-9.18,17.4-2.36,5.84-3.89,11.2-4.57,16.05-.42,2.5-.54,5.64-.32,9.4.2,3.73,1.07,7.35,2.6,10.83,1.53,3.48,3.93,6.5,7.19,9.08,3.26,2.56,7.89,3.99,13.86,4.27,3.34.28,6.73-.38,10.21-1.99,3.48-1.59,6.87-3.71,10.21-6.36,3.34-2.64,6.57-5.62,9.69-8.96,3.14-3.34,6.08-6.73,8.86-10.21-.97,3.48-1.43,6.87-1.35,10.21.06,3.34.73,6.32,1.99,8.96,1.25,2.64,3.08,4.79,5.52,6.46,2.42,1.67,5.58,2.64,9.47,2.92,2.5.14,4.83-.1,6.99-.72,2.15-.64,4.17-1.43,6.04-2.4,1.89-.97,3.56-2.01,5.01-3.12s2.68-2.09,3.65-2.92c3.87-3.2,7.47-6.75,10.73-10.65,3.26-3.87,6.36-7.91,9.28-12.08,2.92-4.17,5.7-8.48,8.34-12.93,2.64-4.45,5.34-8.82,8.12-13.13.38-.66.56-1.25.56-1.79,0-.26-.04-.48-.14-.72Z"/>
      <path class="cls-3" d="m354.67,293.42c-.22-.7-.64-1.25-1.25-1.67-.64-.42-1.33-.6-2.09-.52-.77.08-1.43.46-1.99,1.15-.44.79-.89,1.61-1.39,2.48-1.25,2.19-2.7,4.63-4.33,7.31-2.3,3.75-4.83,7.65-7.61,11.68-2.36,3.32-5.01,6.46-7.93,9.38s-5.84,5.44-8.76,7.61c-2.92,2.15-5.66,3.81-8.22,5.01-2.58,1.17-4.77,1.69-6.57,1.55-2.64-.14-4.41-.79-5.32-1.97-.89-1.19-1.21-2.74-.93-4.69.28-1.95.97-4.11,2.09-6.48,1.11-2.36,2.42-4.75,3.97-7.19,1.51-2.42,3.12-4.79,4.79-7.09,1.67-2.28,3.2-4.27,4.59-5.94,4.03-5.42,8.12-10.67,12.3-15.73,4.17-5.07,7.79-9.83,10.85-14.28,3.04-4.45,5.3-8.36,6.77-11.78,1.45-3.4,1.49-6.14.1-8.22l-1.25-1.25c-.7-.7-1.49-1.39-2.4-2.09-.89-.7-1.73-1.33-2.5-1.89-.75-.54-1.35-.83-1.77-.83-.7.83-2.26,1.93-4.69,3.24-2.42,1.33-5.24,2.68-8.44,4.07-3.2,1.39-6.5,2.74-9.89,4.05-3.42,1.33-6.52,2.44-9.28,3.34-2.78.91-4.95,1.51-6.48,1.77-1.53.3-2.01,0-1.45-.83l8.76-12.71c1.25-3.04,1.73-5.66,1.45-7.81-.28-2.17-.97-3.97-2.09-5.42s-2.54-2.7-4.27-3.75c-1.75-1.03-3.44-1.91-5.11-2.6-.83,2.22-2.44,5.14-4.79,8.76-2.38,3.62-4.59,7.39-6.67,11.36-2.09,3.95-3.48,7.71-4.17,11.24-.7,3.56.2,6.36,2.7,8.44-2.78,4.17-5.38,8.3-7.81,12.41-2.44,4.09-5.05,8.36-7.83,12.81-.32.46-.54.89-.64,1.29-.14.48-.12.91.02,1.31.28.77.7,1.33,1.25,1.67.56.36,1.21.5,1.97.42.77-.06,1.37-.46,1.79-1.15,1.19-1.89,2.4-3.79,3.67-5.74,1.49-2.34,3.06-4.75,4.65-7.17,2.92-4.45,5.98-8.9,9.18-13.35.7.14,1.39.22,2.09.22h2.09c1.95,0,3.62-.08,5.01-.22,1.39-.14,2.7-.38,3.95-.74,1.25-.34,2.6-.68,4.07-1.03,1.45-.34,3.22-.66,5.3-.93.56-.14.56.34,0,1.45-.56,1.11-1.45,2.6-2.7,4.49-1.25,1.87-2.78,4.03-4.59,6.46-1.81,2.44-3.62,4.91-5.42,7.41-2.78,3.75-5.44,7.37-8.02,10.83-2.56,3.48-4.93,6.99-7.09,10.53-2.15,3.56-3.91,7.19-5.3,10.94-1.39,3.75-2.17,7.79-2.3,12.1-.14,4.73,1.05,8.9,3.56,12.51,2.5,3.62,6.4,5.54,11.66,5.82,5.14.28,10.15-.66,15.02-2.8,4.87-2.17,9.46-4.97,13.77-8.44,4.29-3.48,8.32-7.37,12.08-11.68,3.71-4.27,7.01-8.44,9.91-12.57.04-.04.06-.1.1-.14,2.36-3.48,4.59-7.09,6.67-10.85s4.31-7.43,6.67-11.04c.54-.97.72-1.81.52-2.5Z"/>
      <path class="cls-3" d="m414.18,195.45c-1.25-2.36-2.92-4.41-5.01-6.16-2.09-1.73-4.31-3.04-6.67-3.95-2.36-.89-4.23-1.01-5.62-.32-1.53,5.84-3.65,12.3-6.36,19.39-2.03,5.28-4.41,10.93-7.17,16.9,5.48-1.99,16.05-5.66,26.86-8.72l1.79-3.6c1.31-2.92,2.24-5.14,2.8-6.67.83-2.22.64-4.51-.62-6.87Zm-3.34,97.97c-.28-.7-.73-1.25-1.35-1.67-.64-.42-1.33-.6-2.09-.52-.77.08-1.35.46-1.77,1.15-2.3,3.64-4.73,7.57-7.29,11.84-.38.62-.77,1.25-1.15,1.91-3,5.01-6.24,9.79-9.69,14.38-3.48,4.59-7.27,8.7-11.36,12.3-4.11,3.62-8.52,6.12-13.25,7.51h-2.5c-2.64-.14-3.81-2.22-3.54-6.26.28-4.01,1.43-9.1,3.44-15.22,2.01-6.1,4.63-12.85,7.83-20.22,3.2-7.35,6.42-14.38,9.69-21.04,1.93-3.95,3.75-7.65,5.46-11.08l.02-.02c.46-.91.89-1.81,1.33-2.68l1.03-2.07,9-18.04c-5.9.75-14.82,1.65-22.96,1.63-2.66,5.3-5.4,10.57-8.16,15.79-3.75,7.07-7.23,14.2-10.43,21.35-1.83,4.11-3.56,8.24-5.14,12.39-1.21,3.08-2.32,6.18-3.4,9.3-1.55,4.53-2.84,9.12-3.85,13.79-.62,2.84-1.15,5.72-1.57,8.62-.7,3.62-.93,7.05-.73,10.31.22,3.28.83,6.16,1.89,8.66,1.03,2.5,2.56,4.47,4.59,5.94,2.01,1.45,4.47,2.24,7.39,2.38,2.5,0,4.83-.3,6.99-.93,2.15-.62,4.17-1.39,6.04-2.28,1.87-.91,3.58-1.91,5.1-3.02,1.53-1.11,2.78-2.09,3.75-2.92,3.89-3.2,7.47-6.75,10.73-10.65,3.2-3.77,6.18-7.69,8.94-11.74.08-.12.16-.22.24-.34,2.84-4.17,5.6-8.48,8.24-12.93,2.62-4.45,5.34-8.82,8.12-13.13.56-.97.7-1.81.42-2.5Z"/>
      <path class="cls-3" d="m530.7,293.42c-.28-.7-.73-1.25-1.35-1.67-.64-.42-1.35-.6-2.18-.52-.83.08-1.47.46-1.89,1.15-.58.95-1.15,1.93-1.75,2.92-2.03,3.36-4.17,6.97-6.48,10.83-3,5.01-6.26,9.79-9.81,14.38-3.54,4.59-7.37,8.7-11.46,12.3-4.09,3.62-8.5,6.12-13.23,7.51h-2.5c-1.53-.14-2.46-.97-2.82-2.5-.34-1.53-.34-3.5,0-5.94.36-2.42,1.05-5.14,2.09-8.12,1.05-2.98,2.17-6.02,3.34-9.06,1.17-3.06,2.36-6.06,3.54-8.98,1.19-2.92,2.2-5.42,3.04-7.51.7-2.2.42-4.51-.83-6.87-1.25-2.36-2.92-4.45-5.01-6.26-2.09-1.81-4.31-3.2-6.67-4.17-2.36-.95-4.25-1.09-5.62-.42-.28,2.78-.95,6.06-1.99,9.81-1.05,3.75-2.32,7.65-3.85,11.66-1.81,2.92-4.17,6.34-7.09,10.23-2.92,3.89-6.02,7.61-9.28,11.14-3.26,3.54-6.5,6.63-9.69,9.28-3.2,2.64-5.9,4.23-8.12,4.79-4.73,1.11-8.2.91-10.43-.62-2.22-1.53-3.67-3.71-4.37-6.57-.7-2.84-.83-5.94-.42-9.28.42-3.34.97-6.18,1.67-8.54.97-3.48,2.32-7.25,4.05-11.36,1.75-4.09,3.79-8.2,6.16-12.3,2.36-4.09,5.01-8.06,7.93-11.88,2.92-3.83,6.04-7.19,9.38-10.11,3.34-2.92,6.83-5.2,10.53-6.87,3.67-1.67,7.47-2.44,11.36-2.3,3.2.14,5.62.97,7.29,2.5,1.67,1.53,2.88,3.3,3.65,5.32.75,2.01,1.25,4.09,1.45,6.26.22,2.15.46,3.91.73,5.3,0,1.11.28,1.95.83,2.5.56.56,1.21.79,1.99.73.75-.08,1.49-.38,2.19-.93.7-.56,1.03-1.33,1.03-2.3.14-2.92.08-5.86-.2-8.86-.28-2.98-.91-5.76-1.89-8.34-.97-2.56-2.32-4.79-4.05-6.65-1.75-1.89-4.01-3.24-6.77-4.07-6.4-1.67-12.65-1.77-18.77-.32-6.12,1.47-11.98,3.97-17.62,7.51-5.62,3.54-10.91,7.93-15.83,13.13-4.95,5.2-9.28,10.71-13.03,16.47-3.75,5.76-6.81,11.58-9.18,17.4-.14.34-.28.68-.4,1.01-2.15,5.44-3.54,10.47-4.19,15.04-.16.93-.28,1.95-.34,3.06-.12,1.87-.1,3.97.04,6.34.2,3.73,1.07,7.35,2.6,10.83,1.53,3.48,3.91,6.5,7.19,9.08,3.26,2.56,7.89,3.99,13.86,4.27,3.34.28,6.73-.38,10.21-1.99,3.48-1.59,6.87-3.71,10.21-6.36,3.34-2.64,6.57-5.62,9.69-8.96,3.12-3.34,6.08-6.73,8.86-10.21-.97,3.48-1.43,6.87-1.35,10.21.06,3.34.73,6.32,1.99,8.96,1.25,2.64,3.08,4.79,5.52,6.46,2.42,1.67,5.58,2.64,9.48,2.92,2.5.14,4.83-.1,6.99-.72,2.15-.64,4.17-1.43,6.04-2.4s3.54-2.01,5.01-3.12c1.45-1.11,2.66-2.09,3.65-2.92,3.87-3.2,7.45-6.75,10.73-10.65,3.26-3.87,6.36-7.91,9.28-12.08.85-1.23,1.71-2.48,2.54-3.73,2.01-3,3.93-6.06,5.8-9.2,2.62-4.45,5.34-8.82,8.12-13.13.56-.97.7-1.81.42-2.5Z"/>
      <path class="cls-3" d="m589.9,195.45c-1.25-2.36-2.92-4.41-5.01-6.16-2.09-1.73-4.31-3.04-6.67-3.95-2.36-.89-4.23-1.01-5.62-.32-.97,3.62-2.22,7.59-3.75,11.88-1.53,4.31-3.3,8.84-5.3,13.57-2.03,4.71-4.15,9.55-6.36,14.48-2.22,4.93-4.53,9.83-6.89,14.7-3.62,7.23-7.25,14.38-10.94,21.47-3.67,7.07-7.15,14.2-10.41,21.35-1.95,4.25-3.75,8.54-5.4,12.83-1.17,2.94-2.24,5.9-3.26,8.86-1.59,4.63-2.9,9.32-3.91,14.08-.6,2.74-1.09,5.52-1.51,8.32-.7,3.62-.93,7.05-.72,10.31.2,3.28.83,6.16,1.87,8.66,1.03,2.5,2.56,4.47,4.59,5.94,2.01,1.45,4.47,2.24,7.39,2.38,2.5,0,4.83-.3,6.99-.93,2.15-.62,4.17-1.39,6.04-2.28,1.89-.91,3.58-1.91,5.11-3.02,1.53-1.11,2.78-2.09,3.75-2.92,3.89-3.2,7.47-6.75,10.75-10.65,2.19-2.6,4.29-5.28,6.3-8.04.99-1.33,1.93-2.66,2.86-4.03,2.86-4.17,5.6-8.48,8.24-12.93s5.34-8.82,8.12-13.13c.56-.97.7-1.81.42-2.5-.28-.7-.73-1.25-1.35-1.67-.62-.42-1.33-.6-2.09-.52-.75.08-1.35.46-1.77,1.15-.97,1.55-1.99,3.14-3,4.81-.02.02-.04.04-.04.06-1.75,2.8-3.54,5.76-5.4,8.88-3,5.01-6.22,9.79-9.69,14.38s-7.27,8.7-11.36,12.3c-4.09,3.62-8.52,6.12-13.23,7.51h-2.5c-2.64-.14-3.83-2.22-3.56-6.26.28-4.01,1.43-9.1,3.44-15.22,2.03-6.1,4.63-12.85,7.83-20.22,3.2-7.35,6.42-14.38,9.69-21.04,3.26-6.67,6.22-12.61,8.86-17.84,2.64-5.2,4.45-8.78,5.42-10.73,2.22-4.45,4.59-9.08,7.09-13.87,2.48-4.79,4.79-9.34,6.87-13.65,2.09-4.31,3.91-8.16,5.52-11.58,1.59-3.4,2.68-5.94,3.24-7.61.83-2.22.62-4.51-.64-6.87Z"/>
      <path class="cls-3" d="m640.35,295.6c-.14-.75-.5-1.31-1.05-1.67-.56-.34-1.25-.48-2.09-.42-.83.08-1.53.46-2.09,1.15-.93,1.33-1.89,2.68-2.86,4.07-2.11,2.96-4.29,6.06-6.61,9.28-3.42,4.73-7.03,9.24-10.85,13.55-3.81,4.31-7.89,8.16-12.2,11.56-4.31,3.42-8.96,5.8-13.96,7.19h-2.28c-2.5-.14-3.6-1.77-3.24-4.89.34-3.14,1.45-7.13,3.34-12,1.87-4.87,4.33-10.21,7.39-16.05,3.06-5.84,6.08-11.5,9.08-16.98,2.98-5.48,5.76-10.39,8.34-14.7,2.56-4.31,4.27-7.43,5.11-9.38.97-2.22.93-4.51-.1-6.87-1.05-2.36-2.5-4.45-4.39-6.26-1.87-1.81-3.95-3.16-6.26-4.07-2.28-.89-4.13-1.01-5.52-.32-1.95,5.14-4.51,11.16-7.71,18.04-3.2,6.87-6.46,13.9-9.79,21.06-1.47,3.14-2.88,6.24-4.25,9.3-.02.02-.04.04-.04.06-1.77,3.93-3.46,7.79-5.09,11.6-2.82,6.56-4.93,12.28-6.32,17.16-.06.18-.1.38-.16.56-1.11,3.62-1.73,7.01-1.87,10.21s.2,6.04,1.03,8.54c.83,2.5,2.17,4.53,3.97,6.04,1.79,1.53,4.17,2.36,7.07,2.5,2.36,0,4.71-.3,6.99-.93,2.28-.62,4.41-1.39,6.36-2.28,1.95-.91,3.67-1.91,5.2-3.02,1.53-1.11,2.86-2.09,3.97-2.92,8.46-6.54,15.77-13.67,21.89-21.37.56-.72,1.13-1.43,1.69-2.17,0-.02.02-.04.02-.04,5.52-7.09,10.93-14.74,16.21-22.92.83-.95,1.17-1.83,1.05-2.6Z"/>
      <path class="cls-3" d="m721.53,259.87c-.22-2.09-.66-4.15-1.35-6.16s-1.47-3.65-2.3-4.91c-.83-1.25-1.45-1.53-1.87-.83-.28,2.78-1.99,6.99-5.11,12.61-3.14,5.64-7.07,11.92-11.78,18.87-4.73,6.95-10.01,14.06-15.85,21.37-5.84,7.29-11.46,13.96-16.88,20-5.42,6.04-10.43,11.02-15,14.9-4.59,3.89-8.01,5.92-10.23,6.06-1.25,0-1.53-1.61-.83-4.81.7-3.2,1.99-7.25,3.87-12.2,1.87-4.93,4.05-10.41,6.56-16.47,2.5-6.04,5.01-11.84,7.51-17.4s4.75-10.55,6.77-15c2.01-4.45,3.38-7.65,4.07-9.59.7-2.22.42-4.51-.83-6.87-1.25-2.36-2.92-4.45-5.01-6.26-2.09-1.81-4.27-3.16-6.57-4.07-2.28-.89-4.13-1.01-5.52-.32-1.39,5.14-3.48,11.34-6.26,18.55-2.78,7.23-5.72,14.64-8.86,22.21-1.27,3.1-2.54,6.16-3.79,9.18-1.79,4.33-3.54,8.58-5.26,12.71-1.45,3.52-2.76,6.73-3.91,9.67,0,0-.02.02-.02.04-1.13,2.92-2.13,5.56-2.94,7.91-1.53,4.15-2.34,7.81-2.4,10.93-.08,3.14.34,5.82,1.25,8.04.89,2.22,2.22,3.87,3.95,4.99,1.75,1.11,3.71,1.67,5.94,1.67,5.01.14,10.35-1.41,16.05-4.69,5.7-3.26,11.46-7.57,17.3-12.91,5.84-5.36,11.64-11.34,17.42-17.94,5.76-6.59,11.24-13.27,16.47-20,5.2-6.75,9.93-13.17,14.16-19.29,4.23-6.12,7.83-11.26,10.75-15.43.54-.95.72-2.48.52-4.57Z"/>
      <path class="cls-3" d="m808.76,293.42c-.28-.7-.72-1.25-1.35-1.67-.62-.42-1.31-.6-2.09-.52-.75.08-1.43.46-1.97,1.15-1.53,2.78-3.2,5.7-5.01,8.74-1.81,3.06-3.83,6.2-6.06,9.4-2.76,3.97-5.56,7.57-8.4,10.79-1.69,1.97-3.42,3.77-5.14,5.46-4.59,4.45-9.06,8.03-13.45,10.75-4.37,2.7-8.54,4.51-12.49,5.4-3.97.91-7.47,1.01-10.53.32-2.5-.56-4.59-1.59-6.26-3.12-1.67-1.53-2.98-3.34-3.95-5.42-.97-2.09-1.67-4.31-2.09-6.67s-.56-4.73-.42-7.09c12.22-3.34,23.4-8.72,33.55-16.15,10.15-7.43,18.35-16.78,24.61-28.03,2.48-3.89,3.99-7.55,4.47-10.94.5-3.42.18-6.4-.93-8.98-1.11-2.56-2.88-4.61-5.32-6.14-2.42-1.53-5.3-2.3-8.64-2.3-5.14-.12-10.29.7-15.43,2.5-5.14,1.81-9.99,4.17-14.58,7.09-4.59,2.92-8.76,6.08-12.51,9.49-3.75,3.4-6.73,6.56-8.96,9.48-6.95,9.18-12,17.68-15.12,25.54-3.12,7.85-4.55,15.73-4.27,23.66.42,8.6,3.26,15.41,8.54,20.42,5.28,5.01,12.65,7.51,22.11,7.51,1.65,0,3.81-.04,6.46-.1,2.64-.08,5.62-.5,8.96-1.25,3.34-.77,6.87-2.09,10.63-3.97,3.75-1.87,7.65-4.61,11.68-8.22,2.9-2.6,5.58-5.28,8.1-8.06.97-1.09,1.93-2.18,2.84-3.3,3.26-3.97,6.26-7.93,8.96-11.88,2.7-3.97,5.18-7.75,7.41-11.36,2.2-3.62,4.29-6.95,6.24-10.01.56-.97.7-1.81.42-2.5Zm-78.16,20.02c1.11-4.45,3.06-9.55,5.84-15.33,2.78-5.76,6.18-11.36,10.21-16.78,4.03-5.4,8.62-10.21,13.77-14.38,5.14-4.15,10.63-6.79,16.47-7.91,3.89-.7,6.32.38,7.29,3.22.97,2.86.5,6.3-1.45,10.33-5.56,10.55-12.85,19.35-21.89,26.36-9.04,7.03-19.19,12.14-30.43,15.33,0-.28.06-.56.2-.83Z"/>
      <path class="cls-3" d="m862.87,245.37c-.77-1.45-2.07-2.94-3.87-4.47-1.81-1.53-3.81-2.92-6.04-4.17-2.22-1.25-4.09-2.22-5.62-2.92-3.2,2.78-5.92,5.34-8.14,7.71s-4.15,4.69-5.82,6.99c-1.67,2.28-3.28,4.55-4.81,6.77-1.53,2.22-3.12,4.51-4.79,6.87-5.42,7.09-10.39,14.14-14.9,21.15-4.53,7.01-9,14.08-13.45,21.15-3.62,2.5-6.63,6.08-9.08,10.75-1.05,2.01-1.87,4.05-2.46,6.1-.77,2.7-1.17,5.42-1.17,8.18,0,1.01.06,2.01.18,2.98.22,2.13.73,4.17,1.49,6.18,1.11,2.92,2.84,5.52,5.2,7.83,2.36,2.28,5.34,4.17,8.96,5.62,3.62,1.47,7.93,2.4,12.93,2.82,4.73.28,9.14-.36,13.23-1.89,4.09-1.53,7.65-3.75,10.63-6.65,3-2.92,5.24-6.48,6.77-10.65,1.53-4.15,2.22-8.74,2.09-13.75-.28-5.01-.62-10.05-1.03-15.12-.42-5.07-.6-10.11-.52-15.12.06-5.01.7-9.89,1.87-14.7,1.17-4.79,3.24-9.42,6.16-13.86,1.25-1.79,2.2-3.26,2.92-4.37.68-1.11,1.37-2.11,2.09-3.02.68-.89,1.49-1.85,2.38-2.82.91-.97,2.19-2.22,3.85-3.75,1.39-1.11,1.71-2.38.95-3.85Zm-39.51,52.44c.14,4.99.52,9.85,1.15,14.58.62,4.73.93,9.24.93,13.55,0,2.78-.32,5.46-.93,8.02-.64,2.58-1.65,4.83-3.02,6.77-1.41,1.95-3.14,3.44-5.22,4.49-2.09,1.03-4.59,1.43-7.51,1.15-2.64-.14-5.3-.87-8.03-2.2-2.7-1.31-4.89-3.36-6.56-6.14-1.67-2.5-2.44-4.91-2.3-7.19.14-2.3.83-4.35,2.09-6.16,1.25-1.81,2.92-3.3,5.01-4.47,2.09-1.19,4.27-2.07,6.57-2.62,2.28-.54,4.61-.66,6.97-.3,2.36.34,4.39,1.21,6.06,2.6.42-.42.38-1.43-.12-3.02-.48-1.61-1.13-3.34-1.97-5.22-.83-1.87-1.71-3.64-2.62-5.3-.89-1.67-1.55-2.78-1.97-3.34-1.11-.42-2.17-.77-3.14-1.05-.97-.28-1.95-.42-2.92-.42,3.48-5.54,7.23-11.52,11.26-17.92,4.03-6.4,8.12-12.1,12.3-17.1-2.78,5.42-4.51,10.75-5.2,15.95-.7,5.22-.97,10.33-.83,15.33Z"/>
    </g>
    <path class="cls-3" d="m384.62,263.8c-.44.87-.87,1.77-1.33,2.68l-.02.02,1.35-2.7Z"/>
    <path class="cls-3" d="m453.02,222.5l3.85-5.44c-.38.34-3.65,3.3-7.23,6.5-8.28,2.52-16.96,5.03-25.68,7.31l5.14-7.11-21.08,11h.1c-21.57,4.89-42.13,7.73-56.41,5.72,0,0,66.01-22.66,92.43-25.31,0,0-49.22,2.15-130.27,36.77,0,0,73.93-41.16,146.42-49.42,5.56.95,12,2.13,13.31,2.56,1.29.44-2.17-1.49-5.6-3.32,14.06-1.15,27.99-.95,41.2,1.15,0,0-24.97,9.87-56.17,19.59Z"/>
    <text class="cls-2" transform="translate(180.8 386.43)"><tspan x="0" y="0">DIVE INTO THE FANTASY</tspan></text>
  </g>
  <path class="cls-1" d="m636.38,205.14c-1.39-2.15-3.1-4.27-5.11-6.36-2.01-2.09-4.07-3.89-6.16-5.42-2.07-1.53-3.73-2.22-4.99-2.09-.14,3.06-.6,6.3-1.37,9.69-.75,3.42-1.59,6.77-2.48,10.11-.91,3.34-1.71,6.54-2.4,9.59-.7,3.06-1.11,5.76-1.25,8.12,0,1.11.38,2.4,1.15,3.85.75,1.47,1.69,2.92,2.8,4.39,1.11,1.45,2.32,2.74,3.65,3.85,1.31,1.11,2.54,1.73,3.65,1.87.68-2.78,1.73-5.56,3.12-8.34,1.39-2.78,2.82-5.58,4.27-8.44,1.47-2.84,2.84-5.62,4.17-8.32,1.31-2.72,2.32-5.38,3.02-8.02,0-.83-.7-2.34-2.09-4.49Z"/>
</svg>